# xmcd CD database file
#
# Track frame offsets:
#	150
#	11742
#	23668
#	34657
#	45423
#	57979
#	67979
#	78400
#	88457
#	99041
#	111433
#	121043
#	133430
#	143813
#	154734
#	164979
#	177274
#	187218
#	198423
#	210118
#	223108
#	233820
#	245809
#	258079
#	270045
#	282332
#	292891
#
# Disc length: 4106 seconds
#
# Revision: 1
# Processed by: cddbd v1.5.2PL0 Copyright (c) Steve Scherf et al.
# Submitted via: CDex 1.70beta2
#
DISCID=8610081b
DTITLE=Lightnin' Hopkins - Rockin at Herald
DYEAR=1954
DGENRE=Blues
TTITLE0=Lightnin's Boogie
TTITLE1=Don´t Think´Cause You´re Pretty
TTITLE2=Don´t Think´Cause You´re Pretty
TTITLE3=Lightnin´s Special
TTITLE4=Life I Used to Live
TTITLE5=Sick Feelin' Blues
TTITLE6=Let´s Move
TTITLE7=Early Mornin' Boogie
TTITLE8=Nothin' But the Blues
TTITLE9=Evil Hearted Woman
TTITLE10=They Wonder Who I Am
TTITLE11=My Baby's Gone
TTITLE12=Don´t Need No Job
TTITLE13=Blues for My Cookie
TTITLE14=Had a Gal Called Sal
TTITLE15=Lonesome in Your Home
TTITLE16=Hopkins' Sky Hop
TTITLE17=I Love You Baby
TTITLE18=Grandma's Boogie
TTITLE19=That's Alright Baby
TTITLE20=Finally Met My Baby
TTITLE21=Shine on Moon
TTITLE22=Sittin' Down Thinkin'
TTITLE23=Remember Me
TTITLE24=Please Don´t Go Baby
TTITLE25=My Little Kewpie Doll
TTITLE26=Lightnin Don´t Feel Well
EXTD=YEAR: 1954
EXTT0=
EXTT1=
EXTT2=
EXTT3=
EXTT4=
EXTT5=
EXTT6=
EXTT7=
EXTT8=
EXTT9=
EXTT10=
EXTT11=
EXTT12=
EXTT13=
EXTT14=
EXTT15=
EXTT16=
EXTT17=
EXTT18=
EXTT19=
EXTT20=
EXTT21=
EXTT22=
EXTT23=
EXTT24=
EXTT25=
EXTT26=
PLAYORDER=
